<?xml version="1.0" standalone="no"?>
<!DOCTYPE svg PUBLIC "-//W3C//DTD SVG 20010904//EN"
 "http://www.w3.org/TR/2001/REC-SVG-20010904/DTD/svg10.dtd">
<svg version="1.0" xmlns="http://www.w3.org/2000/svg"
 width="1000.000000pt" height="1000.000000pt" viewBox="0 0 1000.000000 1000.000000"
 preserveAspectRatio="xMidYMid meet">
<metadata>
Created by potrace 1.11, written by Peter Selinger 2001-2013
</metadata>
<g transform="translate(0.000000,1000.000000) scale(0.100000,-0.100000)"
fill="#000000" stroke="none">
<path d="M2938 7996 c-1 -2 -77 -6 -168 -9 -91 -4 -176 -8 -190 -11 -14 -2
-43 -7 -65 -10 -209 -27 -443 -93 -660 -186 -581 -247 -1041 -628 -1372 -1132
-49 -73 -94 -142 -100 -153 -19 -31 -163 -321 -163 -329 0 -3 -9 -25 -20 -49
-59 -126 -134 -397 -160 -582 -6 -44 -13 -91 -15 -105 -14 -81 -20 -224 -19
-445 0 -225 5 -324 20 -437 3 -21 6 -50 8 -65 18 -134 63 -337 101 -448 195
-573 562 -1076 1060 -1456 248 -189 551 -349 865 -457 190 -65 313 -92 545
-119 87 -10 535 -10 630 0 133 14 189 21 260 33 44 7 201 35 210 38 6 1 37 8
70 15 306 65 675 223 918 393 l27 20 -139 139 -139 139 -221 -95 c-122 -52
-224 -95 -227 -95 -3 0 -20 -6 -37 -14 -78 -35 -356 -113 -467 -131 -19 -3
-60 -10 -90 -15 -30 -5 -82 -12 -115 -15 -33 -3 -80 -8 -105 -10 -134 -13
-372 -4 -575 21 -115 15 -379 85 -521 138 -85 31 -304 136 -374 178 -206 125
-351 238 -520 408 -297 297 -514 620 -625 930 -30 85 -80 273 -90 340 -4 24
-8 47 -10 50 -1 3 -6 32 -10 65 -4 33 -8 71 -10 85 -23 171 -22 602 0 760 2
14 6 48 10 75 18 152 70 352 131 507 179 458 582 932 1039 1222 204 130 544
278 735 321 8 2 40 10 70 18 49 13 72 18 155 33 151 26 269 36 440 36 199 0
273 -9 614 -77 126 -25 340 -103 480 -175 80 -41 254 -148 296 -182 6 -5 46
-36 90 -70 83 -64 238 -193 314 -263 225 -203 342 -316 726 -700 353 -352 412
-414 680 -705 74 -80 194 -229 211 -261 30 -59 41 -171 25 -250 -37 -176 -195
-342 -370 -389 -67 -18 -180 -14 -232 8 -110 48 -329 238 -719 622 -359 353
-542 523 -666 615 -109 82 -258 115 -494 110 -207 -5 -366 -45 -491 -126 -192
-124 -330 -352 -375 -619 -17 -107 -10 -287 16 -380 49 -172 96 -237 455 -620
103 -110 804 -811 960 -960 109 -104 371 -350 399 -375 7 -5 36 -32 67 -60
265 -241 386 -328 611 -441 196 -99 470 -194 653 -228 100 -19 208 -37 251
-42 27 -3 60 -7 74 -9 153 -25 688 -25 818 0 11 2 43 6 73 10 65 8 183 31 264
52 33 8 71 17 84 20 14 2 28 6 33 9 4 3 16 7 25 9 10 2 56 16 103 33 512 178
984 530 1374 1022 160 203 346 542 440 802 41 113 100 308 110 363 46 240 54
295 63 395 14 168 7 575 -12 664 -2 11 -6 39 -9 61 -40 324 -194 757 -380
1070 -42 70 -180 271 -195 285 -4 3 -26 30 -51 60 -264 324 -639 623 -1041
829 -173 89 -466 200 -599 226 -8 2 -49 10 -90 19 -201 41 -311 51 -580 51
-191 0 -346 -7 -405 -19 -11 -2 -47 -7 -80 -11 -164 -18 -510 -101 -635 -152
-8 -3 -19 -7 -25 -9 -79 -19 -347 -151 -520 -255 -16 -10 -47 -28 -67 -39 -21
-11 -38 -23 -38 -25 0 -3 63 -68 140 -145 l139 -139 113 50 c62 28 149 67 192
85 44 19 94 41 110 49 68 30 246 89 354 116 115 29 139 35 202 45 19 3 37 7
40 9 3 2 41 6 85 10 44 4 89 9 100 12 35 8 403 10 463 2 31 -4 80 -10 107 -13
28 -3 77 -11 110 -17 33 -5 74 -13 90 -15 99 -18 323 -87 445 -139 330 -139
576 -303 825 -550 186 -184 305 -332 428 -532 53 -86 167 -303 167 -318 0 -3
11 -30 24 -59 51 -112 131 -393 152 -538 2 -16 6 -43 9 -60 19 -123 25 -401
12 -563 -17 -206 -60 -418 -123 -605 -262 -769 -903 -1396 -1689 -1654 -106
-34 -257 -73 -320 -83 -16 -2 -55 -8 -85 -13 -116 -20 -191 -25 -370 -24 -210
0 -249 3 -455 39 -130 23 -325 71 -415 103 -442 156 -784 426 -1685 1327 -348
348 -512 519 -685 715 -199 225 -227 272 -237 396 -4 51 0 74 26 140 87 225
251 355 467 371 58 4 77 2 110 -15 39 -20 203 -144 273 -206 19 -17 59 -53 90
-81 31 -27 96 -88 146 -135 107 -102 82 -78 341 -326 463 -446 624 -562 839
-610 63 -14 313 -13 377 2 194 44 334 120 455 245 165 172 247 373 247 609 1
126 -7 185 -35 276 -58 187 -138 304 -399 587 -312 338 -922 938 -1260 1241
-30 27 -75 68 -100 91 -146 135 -370 315 -475 382 -301 191 -600 312 -930 377
-126 24 -165 30 -270 42 -27 3 -63 7 -80 9 -16 3 -104 7 -195 11 -91 3 -170 7
-177 9 -6 2 -13 2 -15 1z"/>
</g>
</svg>
